<svg width="18" height="18" viewBox="0 0 18 18" fill="none" xmlns="http://www.w3.org/2000/svg">
<path d="M12.7268 0.75H5.27322C2.77911 0.75 0.75 2.77911 0.75 5.27326V12.7268C0.75 15.2209 2.77911 17.25 5.27322 17.25H12.7268C15.2209 17.25 17.25 15.2209 17.25 12.7268V5.27326C17.25 2.77911 15.2209 0.75 12.7268 0.75ZM16.2756 12.7268C16.2756 14.6836 14.6836 16.2756 12.7268 16.2756H5.27322C3.31639 16.2756 1.7244 14.6836 1.7244 12.7268V5.27326C1.7244 3.31639 3.31639 1.7244 5.27322 1.7244H12.7268C14.6836 1.7244 16.2756 3.31639 16.2756 5.27326V12.7268Z" fill="#E5E5E5"/>
</svg>
