<svg width="24" height="24" viewBox="0 0 24 24" fill="none" xmlns="http://www.w3.org/2000/svg">
<path d="M21.9353 20.0336L20.7493 8.51765C20.7003 8.04013 20.2981 7.67718 19.8181 7.67718H4.21338C3.73464 7.67718 3.33264 8.03891 3.28239 8.51516L2.06458 20.0367C1.96408 21.0423 2.29928 22.0528 2.98399 22.8096C3.66873 23.5659 4.63998 24 5.64897 24H18.3827C19.387 24 20.3492 23.5746 21.0214 22.8321C21.7031 22.0809 22.0361 21.0622 21.9353 20.0336ZM19.6348 21.5747C19.3115 21.9311 18.8668 22.1274 18.3827 22.1274H5.6493C5.16836 22.1274 4.70303 21.918 4.37252 21.5529C4.042 21.1877 3.88005 20.703 3.92749 20.2283L5.056 9.55007H18.9732L20.0724 20.2215C20.1223 20.728 19.9666 21.2086 19.6348 21.5747Z" fill="#515151"/>
<path d="M12.1717 0C9.21181 0 6.80365 2.40811 6.80365 5.36803V8.6138H8.67622V5.36803C8.67622 3.44053 10.2442 1.87256 12.1717 1.87256C14.0992 1.87256 15.6675 3.44053 15.6675 5.36803V8.6138H17.5397V5.36803C17.5397 2.40811 15.1316 0 12.1717 0Z" fill="#515151"/>
</svg>
