<svg width="36" height="36" viewBox="0 0 36 36" fill="none" xmlns="http://www.w3.org/2000/svg">
<rect width="36" height="36" rx="6" fill="#27AE60"/>
<path d="M24.7443 20.8168C24.3793 20.6373 22.5611 19.7848 22.2229 19.6695C21.8847 19.5477 21.6369 19.49 21.3925 19.8489C21.1447 20.2047 20.4415 20.9963 20.2206 21.2367C20.0063 21.4738 19.7886 21.5027 19.4236 21.3264C17.2538 20.288 15.8307 19.474 14.4009 17.1248C14.0226 16.4998 14.7793 16.5447 15.4858 15.1954C15.6064 14.9582 15.5461 14.7563 15.4524 14.5769C15.3586 14.3974 14.6219 12.6603 14.3139 11.952C14.0159 11.263 13.7078 11.3591 13.4835 11.3463C13.2692 11.3335 13.0247 11.3335 12.7769 11.3335C12.5292 11.3335 12.1307 11.4232 11.7925 11.7726C11.4543 12.1283 10.5 12.984 10.5 14.7211C10.5 16.4581 11.8226 18.1407 12.0035 18.3779C12.191 18.615 14.6052 22.1789 18.3119 23.7141C20.6558 24.6819 21.5733 24.7653 22.7453 24.5986C23.4585 24.4961 24.9285 23.7461 25.2332 22.916C25.5379 22.0892 25.5379 21.3809 25.4475 21.2335C25.3571 21.0764 25.1093 20.9867 24.7443 20.8168Z" fill="white"/>
</svg>
