<svg width="36" height="36" viewBox="0 0 36 36" fill="none" xmlns="http://www.w3.org/2000/svg">
<rect width="36" height="36" rx="6" fill="#25D366"/>
<path d="M22.4235 20.0481C22.1955 19.9309 21.0592 19.3742 20.8478 19.2989C20.6364 19.2194 20.4816 19.1817 20.3288 19.4161C20.174 19.6484 19.7345 20.1653 19.5964 20.3222C19.4625 20.4771 19.3265 20.4959 19.0984 20.3808C17.7423 19.7028 16.853 19.1712 15.9594 17.6373C15.7229 17.2293 16.1959 17.2586 16.6374 16.3776C16.7128 16.2227 16.6751 16.0909 16.6165 15.9737C16.5579 15.8565 16.0975 14.7223 15.905 14.2598C15.7188 13.8099 15.5262 13.8727 15.386 13.8643C15.2521 13.856 15.0993 13.856 14.9445 13.856C14.7896 13.856 14.5406 13.9146 14.3292 14.1426C14.1179 14.3749 13.5215 14.9337 13.5215 16.0679C13.5215 17.2021 14.3481 18.3007 14.4611 18.4556C14.5783 18.6104 16.0871 20.9374 18.4036 21.9398C19.8684 22.5718 20.4418 22.6262 21.1742 22.5174C21.62 22.4504 22.5386 21.9607 22.7291 21.4187C22.9195 20.8788 22.9195 20.4164 22.863 20.3201C22.8065 20.2176 22.6516 20.159 22.4235 20.0481Z" fill="white"/>
<path d="M26.8559 14.5757C26.3829 13.4519 25.7049 12.4433 24.8407 11.5769C23.9764 10.7127 22.9678 10.0326 21.8419 9.56173C20.691 9.07833 19.4689 8.8335 18.2091 8.8335H18.1673C16.8991 8.83977 15.6707 9.09089 14.5156 9.58475C13.4002 10.0619 12.4 10.7399 11.5441 11.6041C10.6882 12.4684 10.0164 13.4729 9.55188 14.5924C9.07057 15.7517 8.82783 16.9843 8.8341 18.2524C8.84038 19.7047 9.18776 21.1466 9.83857 22.4356V25.6164C9.83857 26.148 10.2697 26.579 10.8012 26.579H13.9841C15.2731 27.2298 16.715 27.5772 18.1673 27.5835H18.2112C19.4647 27.5835 20.6805 27.3408 21.8252 26.8657C22.9447 26.3991 23.9513 25.7294 24.8135 24.8735C25.6777 24.0176 26.3578 23.0174 26.8329 21.902C27.3267 20.7469 27.5778 19.5185 27.5841 18.2503C27.5904 16.9759 27.3435 15.7392 26.8559 14.5757ZM23.6939 23.7414C22.227 25.1937 20.2808 25.9931 18.2091 25.9931H18.1735C16.9117 25.9868 15.6582 25.6729 14.5512 25.0828L14.3754 24.9886H11.429V22.0422L11.3348 21.8664C10.7447 20.7594 10.4308 19.5059 10.4245 18.2441C10.4161 16.1577 11.2134 14.199 12.6762 12.7237C14.1368 11.2484 16.0893 10.4323 18.1756 10.4239H18.2112C19.2575 10.4239 20.2724 10.6269 21.2288 11.0287C22.1621 11.42 22.9991 11.9829 23.719 12.7028C24.4368 13.4205 25.0018 14.2597 25.3931 15.193C25.7991 16.1598 26.0021 17.1852 25.9979 18.2441C25.9853 20.3283 25.1671 22.2808 23.6939 23.7414Z" fill="white"/>
</svg>
